<svg xmlns="http://www.w3.org/2000/svg" viewBox="0 0 24.56 16.72"><defs><style>.cls-1{fill:#071d28;}</style></defs><title>black-360-ico</title><g id="Layer_2" data-name="Layer 2"><g id="Layer_1-2" data-name="Layer 1"><g id="black-360-ico"><path class="cls-1" d="M20,6.86a.51.51,0,0,0-.28,1c2.34.67,3.79,1.64,3.79,2.53,0,.65-.79,1.37-2.18,2a20.83,20.83,0,0,1-6.08,1.35l-2.1,0h0a.51.51,0,0,0,0,1l2.12,0h.05a21.92,21.92,0,0,0,6.42-1.43c2.31-1,2.8-2.13,2.8-2.91C24.56,8.95,23,7.7,20,6.86"/><path class="cls-1" d="M5,6.28a.51.51,0,1,0,0,1h2.1V9.42H5a.51.51,0,1,0,0,1H7.57a.51.51,0,0,0,.51-.51V3.65a.51.51,0,0,0-.51-.51H5a.51.51,0,1,0,0,1h2.1V6.28Z"/><path class="cls-1" d="M10.18,7.3h2.11V9.42H10.18Zm-.51,3.14H12.8a.51.51,0,0,0,.51-.51V6.79a.51.51,0,0,0-.51-.51H10.18V4.17h2.1a.51.51,0,0,0,0-1H9.67a.51.51,0,0,0-.51.51V9.93a.51.51,0,0,0,.51.51"/><path class="cls-1" d="M15.41,4.17h2.11V9.42H15.41Zm-.51,6.28H18a.51.51,0,0,0,.51-.51V3.65A.51.51,0,0,0,18,3.14H14.9a.51.51,0,0,0-.51.51V9.93a.51.51,0,0,0,.51.51"/><path class="cls-1" d="M9.36,11.72a.51.51,0,0,0-.78.66l1.14,1.35a22.22,22.22,0,0,1-6.21-1.26C1.93,11.84,1,11.08,1,10.38S2.24,8.67,4.27,8A.51.51,0,0,0,4,7,9.27,9.27,0,0,0,1.17,8.4a2.54,2.54,0,0,0-1.17,2c0,1.18,1.08,2.24,3.13,3a23,23,0,0,0,6.36,1.32l-1,1.13a.51.51,0,0,0,.76.69l1.86-2.06a.51.51,0,0,0,.13-.34v0a.51.51,0,0,0-.12-.33Z"/><path class="cls-1" d="M20,1H21.1V2.09H20Zm-.51,2.09h2.09a.51.51,0,0,0,.51-.51V.51A.51.51,0,0,0,21.61,0H19.52A.51.51,0,0,0,19,.51V2.6a.51.51,0,0,0,.51.51"/></g></g></g></svg>