<svg xmlns="http://www.w3.org/2000/svg" viewBox="0 0 41.38 7.06"><title>copyrt-img</title><g id="Layer_2" data-name="Layer 2"><g id="Layer_1-2" data-name="Layer 1"><g id="copyrt-img"><polygon points="26.61 7.06 20.91 7.06 20.92 5.76 24.12 5.76 24.12 1.3 20.8 1.3 21.18 0 25.8 0 25.8 5.76 26.61 5.76 26.61 7.06"/><rect x="26.57" width="1.36" height="2.86"/><polygon points="34.38 7.06 28.69 7.06 28.7 5.76 31.9 5.76 31.9 1.3 28.73 1.3 28.73 0 33.58 0 33.58 5.76 34.38 5.76 34.38 7.06"/><path d="M39.56,7.06,37.06,3.2a1.24,1.24,0,0,0-.33.14.6.6,0,0,0-.2.21.86.86,0,0,0-.09.31,3.75,3.75,0,0,0,0,.45V7.06H34.81V4.71a4.29,4.29,0,0,1,.08-.82,2.38,2.38,0,0,1,.26-.72,1.72,1.72,0,0,1,.5-.55,1.84,1.84,0,0,1,.79-.31L34.86,0h1.76l2.15,3.25a1.34,1.34,0,0,0,.44-.1.68.68,0,0,0,.28-.21.81.81,0,0,0,.14-.33,2.36,2.36,0,0,0,0-.46V0h1.6V2a3,3,0,0,1-.13.92,2,2,0,0,1-.36.68,1.81,1.81,0,0,1-.57.45,2.51,2.51,0,0,1-.75.24l1.92,2.8Z"/><polygon points="20.07 0 17.94 7.06 16.74 7.06 18.87 0 20.07 0"/><path d="M2.36,4.65l1-3h.3l.94,3Zm4.11,1.1-.11-.3L4.8,1.3,4.61.8,4.32,0H2.63L0,7H1.57L2,5.71H4.89L5.34,7h1.6Z"/><path d="M10.63.57,10.39.42A3.92,3.92,0,0,0,8.56,0h-3V.76L7.12,4.91V1.3h1.1a2,2,0,0,1,2.23,2.19c0,1.58-.65,2.24-2.22,2.27H7.43L7.91,7h.65a3.41,3.41,0,0,0,2.52-.9A3,3,0,0,0,11.8,4.9c0-.11.06-.22.09-.34A5.13,5.13,0,0,0,12,3.49,3.55,3.55,0,0,0,11.09.93a2.75,2.75,0,0,0-.45-.37"/><path d="M16.12,0h-.4L14.35,5,13,0H11.12l.09.28a3.42,3.42,0,0,1,1.64,3.2,5,5,0,0,1-.18,1.4L13.33,7h1.94l2.27-7Z"/></g></g></g></svg>