<svg xmlns="http://www.w3.org/2000/svg" viewBox="0 0 30.53 30.53"><defs><style>.cls-1{fill:#1a1a1a;}</style></defs><title>gray-arrow-ico</title><g id="Layer_2" data-name="Layer 2"><g id="Layer_1-2" data-name="Layer 1"><g id="gray-arrow-ico"><path class="cls-1" d="M30.43.78A1.29,1.29,0,0,0,29.74.1L29.25,0H16.53a1.27,1.27,0,0,0,0,2.55h9.65L2.55,26.18V16.53a1.27,1.27,0,0,0-2.55,0V29.26l.1.47.26.4,0,0,.4.27.48.1H14A1.27,1.27,0,1,0,14,28H4.35L28,4.35V14a1.27,1.27,0,1,0,2.55,0V1.27Z"/></g></g></g></svg>