<svg xmlns="http://www.w3.org/2000/svg" viewBox="0 0 49.8 26.45"><defs><style>.cls-1{fill:#1a1a1a;}</style></defs><title>gray-bad-ico</title><g id="Layer_2" data-name="Layer 2"><g id="Layer_1-2" data-name="Layer 1"><g id="gray-bad-ico"><path class="cls-1" d="M48.24,21H1.56V18.67H48.24ZM0,17.12v5.45H6.22v3.89H7.78V22.56H42v3.89h1.56V22.56H49.8V17.12Z"/><path class="cls-1" d="M43.57,16.34V14.72a3.83,3.83,0,0,0-3.82-3.82H10a3.83,3.83,0,0,0-3.82,3.82v1.62H7.78V14.72A2.27,2.27,0,0,1,10,12.45h29.7A2.27,2.27,0,0,1,42,14.72v1.62Z"/><polygon class="cls-1" points="4.67 1.56 45.13 1.56 45.13 16.34 46.69 16.34 46.69 0 3.11 0 3.11 16.34 4.67 16.34 4.67 1.56"/><path class="cls-1" d="M24.12,10.11V8.18a2.73,2.73,0,0,0-2.73-2.73H13.62a2.73,2.73,0,0,0-2.73,2.73v1.94h1.56V8.18A1.18,1.18,0,0,1,13.62,7h7.77a1.18,1.18,0,0,1,1.17,1.18v1.94Z"/><path class="cls-1" d="M38.9,10.11V8.18a2.73,2.73,0,0,0-2.73-2.73H28.41a2.73,2.73,0,0,0-2.73,2.73v1.94h1.56V8.18A1.18,1.18,0,0,1,28.41,7h7.77a1.18,1.18,0,0,1,1.17,1.18v1.94Z"/></g></g></g></svg>