<svg xmlns="http://www.w3.org/2000/svg" viewBox="0 0 19.82 19.82"><defs><style>.cls-1{fill:#93a33a;}</style></defs><title>green-email-ico</title><g id="Layer_2" data-name="Layer 2"><g id="Layer_1-2" data-name="Layer 1"><g id="green-email-ico"><path class="cls-1" d="M14.12,5.87H5.68a.75.75,0,0,0-.58.43v.1h0A.74.74,0,0,1,5.68,6h8.44a.71.71,0,0,1,.59.44l0,0a.75.75,0,0,0-.63-.54M4.9,7.24v.13l3,2.53L8,9.83Zm9.94.09L11.73,9.86l.08.07,3-2.47V7.33Zm5,2.58A9.91,9.91,0,0,1,0,9.91V10a9.91,9.91,0,0,0,19.82,0V9.91m-11.17.34-3.4,3.2.08.06,3.32-3.13,1.25,1,1.25-1,3.34,3.09.08-.06-3.42-3.16-1.25,1Z"/><path class="cls-1" d="M9.91,0A9.88,9.88,0,0,0,0,9.84v.07a9.91,9.91,0,0,1,19.82,0s0,0,0-.07A9.88,9.88,0,0,0,9.91,0M5.11,6.41v.13l4.81,4,4.85-4,0-.1L9.91,10.38Zm-.21,1V12.9L8,10,7.95,9.9l-3,2.86Zm6.9,2.56-.08.06,3.12,2.89v-.13Zm2.69,3.57a.66.66,0,0,1-.37.11H5.68a.66.66,0,0,1-.36-.1l-.08.07a.66.66,0,0,0,.44.16h8.44a.67.67,0,0,0,.45-.17Z"/><path class="cls-1" d="M9.91.13A9.88,9.88,0,0,0,0,9.91a9.91,9.91,0,0,0,19.82,0A9.88,9.88,0,0,0,9.91.13M5.11,6.41h0V6.3a.75.75,0,0,1,.58-.43h8.44a.75.75,0,0,1,.63.54l0,0,0,.1-4.85,4-4.8-4V6.41m-.21,1V7.24L8,9.83l-.07.07L8,10,4.9,12.9Zm6.9,2.56-.08-.07,3.12-2.54v5.56L11.73,10ZM5.33,13.51l-.08-.06,3.4-3.2,1.25,1,1.25-1,3.42,3.16-.08.06.08.07a.67.67,0,0,1-.45.17H5.68a.66.66,0,0,1-.44-.16Z"/></g></g></g></svg>