<svg xmlns="http://www.w3.org/2000/svg" viewBox="0 0 19.82 19.96"><defs><style>.cls-1{fill:#93a33a;}</style></defs><title>Asset 33</title><g id="Layer_2" data-name="Layer 2"><g id="Layer_1-2" data-name="Layer 1"><g id="green-time-ico"><path class="cls-1" d="M11.46,8.45a.57.57,0,0,0-.41.17l-1.93,2,.06.07L11,8.76a.57.57,0,0,1,.41-.17.56.56,0,0,1,.39.16.55.55,0,0,1,.17.34.56.56,0,0,0-.56-.63m2.74,2.27a4.31,4.31,0,0,1-8.61,0s0,0,0,.07a4.31,4.31,0,1,0,8.61,0v-.07m-3.48,0-.06.06,1.65,1.86a.55.55,0,0,1,.14.31.56.56,0,0,0-.14-.44Z"/><path class="cls-1" d="M13.18,4.71a2.31,2.31,0,0,0-1.52.57l.12,0a2.32,2.32,0,0,1,3.73,1.79s0,0,0-.07a2.33,2.33,0,0,0-2.33-2.33m-6.54,0A2.33,2.33,0,0,0,4.32,7v.07A2.32,2.32,0,0,1,8,5.32l.12,0a2.32,2.32,0,0,0-1.52-.57m3.24.78a5.16,5.16,0,0,0-5.15,5.16s0,0,0,.07a5.15,5.15,0,0,1,10.31,0s0,0,0-.07A5.16,5.16,0,0,0,9.89,5.5M19.82,10A9.91,9.91,0,0,1,0,10V10a9.91,9.91,0,1,0,19.82,0V10"/><path class="cls-1" d="M9.89,6.34a4.31,4.31,0,0,0-4.31,4.31v.07a4.31,4.31,0,0,1,8.61,0s0,0,0-.07A4.31,4.31,0,0,0,9.89,6.34M12,9.08a.56.56,0,0,1-.15.32l-1.21,1.26.06.07,1.15-1.2A.56.56,0,0,0,12,9.08M9.18,10.71l-.06.06,2.34,2.64a.57.57,0,0,0,1-.44.57.57,0,0,1-1,.31Z"/><path class="cls-1" d="M9.89,6.48a4.31,4.31,0,0,0-4.31,4.24,4.31,4.31,0,0,0,8.61,0A4.31,4.31,0,0,0,9.89,6.48m-.7,4.23-.06-.07,1.93-2a.57.57,0,0,1,1,.46.56.56,0,0,1-.15.46l-1.15,1.2,1.58,1.79a.57.57,0,0,1,.14.44.57.57,0,0,1-1,.44L9.12,10.77Z"/><path class="cls-1" d="M9.91,0A9.91,9.91,0,0,0,0,9.91V10a9.91,9.91,0,0,1,19.82,0V9.91A9.91,9.91,0,0,0,9.91,0m1.87,5.32-.12.1a5.64,5.64,0,0,1,3.42,3.09,2.31,2.31,0,0,0,.42-1.33s0,0,0-.07a2.32,2.32,0,0,1-.42,1.27,5.64,5.64,0,0,0-3.31-3.05M8,5.32A5.64,5.64,0,0,0,4.74,8.37a2.32,2.32,0,0,1-.42-1.27s0,0,0,.07a2.32,2.32,0,0,0,.42,1.33A5.64,5.64,0,0,1,8.16,5.41L8,5.32m7,5.4a5.15,5.15,0,0,1-10.31,0v.07a5.15,5.15,0,1,0,10.31,0v-.07"/><path class="cls-1" d="M9.91.13A9.91,9.91,0,0,0,0,10a9.91,9.91,0,0,0,19.82,0A9.91,9.91,0,0,0,9.91.13m1.87,5.18-.12,0A2.32,2.32,0,0,1,15.51,7s0,0,0,.07,0,0,0,.07a2.31,2.31,0,0,1-.42,1.33,5.64,5.64,0,0,0-3.42-3.09l.12-.1M4.32,7.11s0,0,0-.07A2.32,2.32,0,0,1,8.16,5.28L8,5.32l.12.1A5.64,5.64,0,0,0,4.74,8.51a2.32,2.32,0,0,1-.42-1.33s0,0,0-.07m.42,3.61v-.07a5.15,5.15,0,1,1,10.31,0v.13a5.15,5.15,0,1,1-10.31,0v-.07"/></g></g></g></svg>