<svg xmlns="http://www.w3.org/2000/svg" viewBox="0 0 50.18 67.95"><defs><style>.cls-1{fill:#f99f1c;}</style></defs><title>list-ico</title><g id="Layer_2" data-name="Layer 2"><g id="Layer_1-2" data-name="Layer 1"><path id="list-ico" class="cls-1" d="M11.6,59.72l3.78-3.79a1.51,1.51,0,1,0-2.14-2.14l-2.71,2.71L10,56a1.51,1.51,0,0,0-2.14,2.14l1.56,1.56a1.36,1.36,0,0,0,1.07.41,1.26,1.26,0,0,0,1.16-.4m0-9,3.78-3.79a1.51,1.51,0,0,0-2.14-2.14l-2.71,2.71L10,47A1.51,1.51,0,1,0,7.9,49.1l1.56,1.56a1.57,1.57,0,0,0,1.07.41,1.88,1.88,0,0,0,1.07-.4m0-9,3.78-3.79a1.51,1.51,0,0,0-2.14-2.14l-2.71,2.71L10,37.92a1.51,1.51,0,0,0-2.14,2.14l1.56,1.56a1.56,1.56,0,0,0,1.07.41,1.26,1.26,0,0,0,1.16-.4m0-9,3.78-3.79a1.51,1.51,0,1,0-2.14-2.14l-2.71,2.71L10,29A1.51,1.51,0,1,0,7.9,31.09l1.56,1.56a1.57,1.57,0,0,0,1.07.41,1.44,1.44,0,0,0,1.07-.4m0-9,3.78-3.79a1.51,1.51,0,1,0-2.14-2.14l-2.71,2.71L10,20A1.51,1.51,0,1,0,7.9,22.13l1.56,1.56a1.57,1.57,0,0,0,1.07.41,1.89,1.89,0,0,0,1.07-.4m0-9.3,3.78-3.78a1.51,1.51,0,1,0-2.14-2.14l-2.71,2.72-.5-.49A1.51,1.51,0,1,0,7.9,12.83L9.46,14.4a1.36,1.36,0,0,0,1.07.41,1.9,1.9,0,0,0,1.07-.41M40,11.68a1.47,1.47,0,0,0-1.48-1.48H21a1.48,1.48,0,0,0,0,3H38.5A1.42,1.42,0,0,0,40,11.68m0,9a1.47,1.47,0,0,0-1.48-1.48H21a1.48,1.48,0,0,0,0,3H38.5A1.47,1.47,0,0,0,40,20.73m.17,9a1.47,1.47,0,0,0-1.48-1.48H21a1.48,1.48,0,1,0,0,3h17.6a1.55,1.55,0,0,0,1.57-1.48m0,9a1.47,1.47,0,0,0-1.48-1.48H21a1.48,1.48,0,1,0,0,3h17.6a1.45,1.45,0,0,0,1.57-1.48m0,18.18a1.47,1.47,0,0,0-1.48-1.48H21a1.48,1.48,0,1,0,0,3h17.6a1.55,1.55,0,0,0,1.57-1.48m0-9.13a1.47,1.47,0,0,0-1.48-1.48H21a1.48,1.48,0,1,0,0,3h17.6a1.55,1.55,0,0,0,1.57-1.48M4,3A1,1,0,0,0,3,4V63.92a1,1,0,0,0,1,1H46.15a1,1,0,0,0,1-1V4a1,1,0,0,0-1-1H4Zm42.12,64.9H4a4,4,0,0,1-4-4V4A4,4,0,0,1,4,0H46.15a4,4,0,0,1,4,4V63.91a4,4,0,0,1-4,4"/></g></g></svg>