<svg xmlns="http://www.w3.org/2000/svg" viewBox="0 0 57.85 57.86"><defs><style>.cls-1{fill:#f99f1c;}</style></defs><title>person-ico</title><g id="Layer_2" data-name="Layer 2"><g id="Layer_1-2" data-name="Layer 1"><g id="person-ico"><path class="cls-1" d="M24,3.62a9,9,0,1,1-9,9,9,9,0,0,1,9-9m0,21.7A12.66,12.66,0,1,0,11.3,12.66,12.67,12.67,0,0,0,24,25.31"/><path class="cls-1" d="M40.89,54.24H5.21a1.49,1.49,0,0,1-1.09-.49,1.89,1.89,0,0,1-.51-1.31s0-4,0-4.71v-.19c0-.13,0-.27,0-.31C4.08,42,9.06,37.35,16.33,35.36a29.45,29.45,0,0,1,15.25,0,1.81,1.81,0,1,0,1-3.49,33.05,33.05,0,0,0-17.16,0C6.62,34.27.6,40.18,0,46.94c0,.08,0,.54,0,.7V48H0c0,1.15,0,4.43,0,4.44a5.5,5.5,0,0,0,1.49,3.8,5.08,5.08,0,0,0,3.72,1.63H40.89a1.81,1.81,0,0,0,0-3.62"/><path class="cls-1" d="M56,38.87H47.91V30.74a1.81,1.81,0,0,0-3.62,0v8.14H36.16a1.81,1.81,0,0,0,0,3.62h8.14v8.14a1.81,1.81,0,0,0,3.62,0V42.49H56a1.81,1.81,0,0,0,0-3.62"/></g></g></g></svg>