<svg xmlns="http://www.w3.org/2000/svg" viewBox="0 0 49.8 26.45"><defs><style>.cls-1{fill:#fff;}</style></defs><title>white-bed-ico</title><g id="Layer_2" data-name="Layer 2"><g id="Layer_1-2" data-name="Layer 1"><g id="white-bed-ico"><path class="cls-1" d="M47.46,21H2.33a.78.78,0,0,1-.78-.78v-.78a.78.78,0,0,1,.78-.78H47.46a.78.78,0,0,1,.78.78v.78A.78.78,0,0,1,47.46,21ZM0,17.9v3.89a.78.78,0,0,0,.78.78H5.45a.78.78,0,0,1,.78.78v2.34a.78.78,0,0,0,.78.78H7a.78.78,0,0,0,.78-.78V23.34a.78.78,0,0,1,.78-.78H41.24a.78.78,0,0,1,.78.78v2.34a.78.78,0,0,0,.78.78h0a.78.78,0,0,0,.78-.78V23.34a.78.78,0,0,1,.78-.78H49a.78.78,0,0,0,.78-.78V17.9a.78.78,0,0,0-.78-.78H.78A.78.78,0,0,0,0,17.9Z"/><path class="cls-1" d="M43.57,15.56v-.07a4.6,4.6,0,0,0-4.6-4.6H10.83a4.6,4.6,0,0,0-4.6,4.6v.07a.78.78,0,0,0,.78.78H7a.78.78,0,0,0,.78-.78v-.07a3,3,0,0,1,3-3H39a3,3,0,0,1,3,3v.07a.78.78,0,0,0,.78.78h0A.78.78,0,0,0,43.57,15.56Z"/><path class="cls-1" d="M5.45,1.56H44.35a.78.78,0,0,1,.78.78V15.56a.78.78,0,0,0,.78.78h0a.78.78,0,0,0,.78-.78V.78A.78.78,0,0,0,45.91,0h-42a.78.78,0,0,0-.78.78V15.56a.78.78,0,0,0,.78.78h0a.78.78,0,0,0,.78-.78V2.33A.78.78,0,0,1,5.45,1.56Z"/><path class="cls-1" d="M24.12,9.34V9a3.51,3.51,0,0,0-3.51-3.51H14.4A3.51,3.51,0,0,0,10.89,9v.38a.78.78,0,0,0,.78.78h0a.78.78,0,0,0,.78-.78V9a2,2,0,0,1,2-2h6.21a2,2,0,0,1,2,2v.38a.78.78,0,0,0,.78.78h0A.78.78,0,0,0,24.12,9.34Z"/><path class="cls-1" d="M38.9,9.34V9A3.51,3.51,0,0,0,35.4,5.45H29.19A3.51,3.51,0,0,0,25.68,9v.38a.78.78,0,0,0,.78.78h0a.78.78,0,0,0,.78-.78V9a2,2,0,0,1,2-2H35.4a2,2,0,0,1,2,2v.38a.78.78,0,0,0,.78.78h0A.78.78,0,0,0,38.9,9.34Z"/></g></g></g></svg>