<svg xmlns="http://www.w3.org/2000/svg" viewBox="0 0 68.31 36.29"><defs><style>.cls-1{fill:#f99f1c;}</style></defs><title>yellow-bed-ico</title><g id="Layer_2" data-name="Layer 2"><g id="Layer_1-2" data-name="Layer 1"><g id="yellow-bed-ico"><path class="cls-1" d="M66.17,28.82h-64v-3.2h64ZM0,23.48V31H8.54v5.34h2.13V31h47v5.34h2.13V31h8.54V23.48Z"/><path class="cls-1" d="M59.77,22.41V18.58a3.63,3.63,0,0,0-3.63-3.63h-44a3.63,3.63,0,0,0-3.63,3.63v3.84h2.14V18.58a1.5,1.5,0,0,1,1.5-1.5h44a1.5,1.5,0,0,1,1.5,1.5v3.84Z"/><polygon class="cls-1" points="6.4 2.13 61.91 2.13 61.91 22.41 64.04 22.41 64.04 0 4.27 0 4.27 22.41 6.4 22.41 6.4 2.13"/><path class="cls-1" d="M33.09,13.88V9.61A2.13,2.13,0,0,0,31,7.47H17.08a2.13,2.13,0,0,0-2.13,2.13v4.27h2.14V9.61H31v4.27Z"/><path class="cls-1" d="M53.37,13.88V9.61a2.13,2.13,0,0,0-2.13-2.13H37.36a2.14,2.14,0,0,0-2.14,2.14v4.27h2.14V9.61H51.23v4.27Z"/></g></g></g></svg>