<svg xmlns="http://www.w3.org/2000/svg" viewBox="0 0 48 48"><defs><style>.cls-1{fill:#f99f1c;}</style></defs><title>yellow-shower-ico</title><g id="Layer_2" data-name="Layer 2"><g id="Layer_1-2" data-name="Layer 1"><g id="yellow-shower-ico"><path class="cls-1" d="M36.5,46.4l-.8-1.6H37.6v1.6Zm-26.1,0V44.8H12.3l-.8,1.6Zm23.51-1.6.8,1.6H13.29l.8-1.6ZM6.15,40.1l-2.7-9.7H8.8v8.8H19.2V30.4H44.55l-2.7,9.7a4.24,4.24,0,0,1-4.07,3.1H10.22a4.24,4.24,0,0,1-4.07-3.1M2.4,27.2H8.8v1.6H2.4a.8.8,0,0,1,0-1.6m8,8.8h7.2v1.6H10.4Zm7.2-1.6H10.4V25.6h7.2Zm28-7.2a.8.8,0,0,1,0,1.6H19.2V27.2ZM40.33,8,36,3.67a3,3,0,0,1,3.62.49l.26.27A3,3,0,0,1,40.33,8M47.2,46.4h-8V44.6a5.84,5.84,0,0,0,4.2-4.07L46.23,30.3a2.39,2.39,0,0,0-.63-4.7V1.93A1.93,1.93,0,0,0,42.3.57L40.23,2.64a4.61,4.61,0,0,0-6,.39.8.8,0,0,0,0,1.13l5.66,5.66a.81.81,0,0,0,.57.23A.8.8,0,0,0,41,9.82a4.61,4.61,0,0,0,.39-6L43.43,1.7a.32.32,0,0,1,.36-.07.32.32,0,0,1,.2.3V25.6H19.2V24H8.8v1.6H2.4a2.39,2.39,0,0,0-.63,4.7L4.6,40.53A5.84,5.84,0,0,0,8.8,44.6v1.8H.8A.8.8,0,1,0,.8,48H47.2a.8.8,0,1,0,0-1.6"/><path class="cls-1" d="M37.6,11.2a.8.8,0,0,0,.8-.8V9.6a.8.8,0,1,0-1.6,0v.8a.8.8,0,0,0,.8.8"/><path class="cls-1" d="M36.8,16.8a.8.8,0,1,0,1.6,0V16a.8.8,0,0,0-1.6,0Z"/><path class="cls-1" d="M36.8,20a.8.8,0,1,0,1.6,0v-.8a.8.8,0,1,0-1.6,0Z"/><path class="cls-1" d="M36.8,23.2a.8.8,0,0,0,1.6,0v-.8a.8.8,0,1,0-1.6,0Z"/><path class="cls-1" d="M36.8,13.6a.8.8,0,1,0,1.6,0v-.8a.8.8,0,1,0-1.6,0Z"/><path class="cls-1" d="M30,10a.81.81,0,0,0,.56-.23l.57-.57A.8.8,0,0,0,30,8.09l-.57.57a.8.8,0,0,0,0,1.13A.81.81,0,0,0,30,10"/><path class="cls-1" d="M27.71,12.29a.79.79,0,0,0,.57-.23l.57-.57a.8.8,0,0,0-1.13-1.13l-.56.56a.8.8,0,0,0,0,1.13.79.79,0,0,0,.56.23"/><path class="cls-1" d="M25.45,14.55a.8.8,0,0,0,.57-.23l.57-.57a.8.8,0,1,0-1.13-1.13l-.57.57a.8.8,0,0,0,.57,1.36"/><path class="cls-1" d="M32.23,7.76a.8.8,0,0,0,.57-.23L33.37,7a.8.8,0,0,0-1.13-1.13l-.57.57a.8.8,0,0,0,.57,1.36"/><path class="cls-1" d="M20.92,19.08a.8.8,0,0,0,.57-.23l.56-.57a.8.8,0,0,0-1.13-1.13l-.57.57a.8.8,0,0,0,.57,1.37"/><path class="cls-1" d="M16.4,23.6a.79.79,0,0,0,.57-.23l.57-.57a.8.8,0,0,0-1.13-1.13l-.57.57a.8.8,0,0,0,.57,1.36"/><path class="cls-1" d="M23.18,16.81a.8.8,0,0,0,.57-.23l.57-.57a.8.8,0,1,0-1.13-1.13l-.57.57a.8.8,0,0,0,.57,1.36"/><path class="cls-1" d="M18.66,21.34a.8.8,0,0,0,.57-.23l.57-.57a.8.8,0,0,0-1.13-1.13l-.56.57a.8.8,0,0,0,.56,1.37"/><path class="cls-1" d="M31.32,15.79a.76.76,0,0,0,.39.1.8.8,0,0,0,.7-.41l.39-.7a.8.8,0,1,0-1.4-.78l-.39.7a.8.8,0,0,0,.31,1.08"/><path class="cls-1" d="M32.95,11.21l-.39.7a.8.8,0,0,0,1.4.78l.39-.7a.8.8,0,1,0-1.4-.78"/><path class="cls-1" d="M34.42,10.2a.79.79,0,0,0,.39.1.8.8,0,0,0,.7-.41l.39-.7a.8.8,0,1,0-1.4-.78l-.39.7a.8.8,0,0,0,.31,1.09"/><path class="cls-1" d="M29.29,21.07l.39-.7a.8.8,0,0,0-1.4-.78l-.39.7a.8.8,0,0,0,.31,1.09.82.82,0,0,0,.39.1.8.8,0,0,0,.7-.41"/><path class="cls-1" d="M30.85,18.28l.39-.7a.8.8,0,0,0-1.4-.78l-.39.7a.8.8,0,0,0,.31,1.09.8.8,0,0,0,1.09-.31"/><path class="cls-1" d="M27.82,22.09a.8.8,0,0,0-1.09.31l-.23.41a.8.8,0,0,0,1.4.78l.23-.41a.8.8,0,0,0-.31-1.09"/></g></g></g></svg>